<?xml version="1.0" standalone="no"?>
<!DOCTYPE svg PUBLIC "-//W3C//DTD SVG 20010904//EN"
 "http://www.w3.org/TR/2001/REC-SVG-20010904/DTD/svg10.dtd">
<svg version="1.0" xmlns="http://www.w3.org/2000/svg"
 width="429.000000pt" height="434.000000pt" viewBox="0 0 429.000000 434.000000"
 preserveAspectRatio="xMidYMid meet">
<metadata>
Created by potrace 1.16, written by Peter Selinger 2001-2019
</metadata>
<g transform="translate(0.000000,434.000000) scale(0.100000,-0.100000)"
fill="#000000" stroke="none">
<path d="M0 2170 l0 -2170 2145 0 2145 0 0 2170 0 2170 -2145 0 -2145 0 0
-2170z m2657 2005 c292 -78 581 -231 825 -434 298 -250 530 -618 649 -1031 56
-195 61 -252 56 -584 -5 -335 -9 -365 -87 -597 -183 -551 -550 -973 -1065
-1225 -142 -70 -327 -135 -469 -164 -124 -26 -346 -43 -486 -38 -99 4 -130 10
-222 41 -128 43 -199 79 -295 146 -199 140 -340 344 -405 585 -19 70 -22 107
-23 266 0 215 15 288 90 449 110 231 302 415 537 513 113 48 195 65 372 78
177 13 285 32 375 66 506 190 782 727 640 1244 -74 269 -277 517 -531 650 -72
38 -96 60 -65 60 6 0 54 -11 104 -25z m-421 -556 c129 -24 241 -108 298 -224
52 -108 45 -285 -17 -384 -89 -146 -211 -207 -392 -199 -109 5 -171 33 -250
112 -162 162 -163 413 -4 581 99 105 216 142 365 114z"/>
<path d="M2060 1481 c-106 -35 -208 -119 -257 -212 -26 -51 -28 -62 -28 -174
0 -111 2 -124 27 -176 35 -71 129 -161 205 -197 51 -24 70 -27 153 -27 132 1
192 26 281 114 73 74 105 139 116 242 13 125 -31 242 -124 330 -78 74 -145
101 -257 105 -50 2 -102 0 -116 -5z"/>
</g>
</svg>
