<?xml version="1.0" standalone="no" ?>
<!DOCTYPE svg PUBLIC "-//W3C//DTD SVG 20010904//EN"
  "http://www.w3.org/TR/2001/REC-SVG-20010904/DTD/svg10.dtd">
<svg
  version="1.0"
  xmlns="http://www.w3.org/2000/svg"
  width="513.000000pt"
  height="506.000000pt"
  viewBox="0 0 513.000000 506.000000"
  preserveAspectRatio="xMidYMid meet"
>

<g
    transform="translate(0.000000,506.000000) scale(0.100000,-0.100000)"
    fill="#000000"
    stroke="none"
  >
<path
      d="M2360 4215 c-491 -68 -925 -342 -1207 -765 -113 -168 -207 -398 -254
-620 -20 -91 -23 -135 -23 -330 -1 -197 2 -238 22 -334 117 -556 462 -1001
962 -1240 382 -182 831 -215 1235 -89 526 163 952 581 1125 1102 72 217 84
296 84 556 0 201 -3 243 -22 335 -106 495 -382 890 -805 1152 -320 199 -735
285 -1117 233z m544 -95 c305 -60 587 -207 808 -418 256 -246 413 -530 490
-882 19 -91 22 -134 22 -325 0 -191 -3 -234 -22 -325 -138 -635 -600 -1124
-1209 -1279 -105 -27 -121 -26 -55 4 89 41 185 110 259 189 285 299 308 754
56 1084 -71 93 -165 171 -275 228 -119 61 -212 83 -394 94 -120 6 -166 14
-230 35 -244 81 -433 259 -523 494 -97 251 -60 562 91 772 135 189 321 307
558 353 61 11 319 -3 424 -24z m-162 -2168 c64 -31 126 -96 157 -162 34 -73
36 -191 4 -262 -52 -115 -158 -188 -283 -196 -103 -6 -172 21 -245 93 -171
171 -106 457 124 542 57 21 186 13 243 -15z"
    />
<path
      d="M2549 3679 c-98 -15 -191 -85 -240 -181 -30 -58 -38 -177 -15 -244
25 -76 81 -142 156 -183 60 -33 71 -36 150 -36 101 0 154 20 224 85 69 64 100
136 100 235 0 87 -18 143 -69 210 -66 86 -191 133 -306 114z"
    />
</g>
</svg>
