<?xml version="1.0" standalone="no"?>
<!DOCTYPE svg PUBLIC "-//W3C//DTD SVG 20010904//EN"
 "http://www.w3.org/TR/2001/REC-SVG-20010904/DTD/svg10.dtd">
<svg version="1.0" xmlns="http://www.w3.org/2000/svg"
 width="317.000000pt" height="223.000000pt" viewBox="0 0 317.000000 223.000000"
 preserveAspectRatio="xMidYMid meet">
<metadata>
Created by potrace 1.16, written by Peter Selinger 2001-2019
</metadata>
<g transform="translate(0.000000,223.000000) scale(0.100000,-0.100000)"
fill="#000000" stroke="none">
<path d="M0 1526 l0 -705 70 41 c108 61 262 123 398 158 37 10 42 14 37 33 -3
12 10 -9 29 -48 36 -74 92 -164 81 -130 -4 11 -12 52 -18 91 -12 82 2 185 32
243 l18 35 -66 82 c-71 88 -141 205 -141 236 0 26 40 221 46 228 3 3 10 -3 15
-12 18 -32 105 -85 174 -107 39 -13 111 -42 161 -65 l90 -43 23 40 c13 22 64
85 115 140 50 55 124 137 164 183 40 46 76 84 80 84 4 -1 19 -16 33 -35 l26
-34 68 68 c38 38 86 95 107 127 22 33 47 67 55 77 15 16 -23 17 -790 17 l-807
0 0 -704z"/>
<path d="M1640 2219 c0 -16 16 -44 92 -161 39 -60 74 -108 78 -108 5 0 20 14
33 30 14 17 28 30 30 30 2 0 42 -44 88 -97 46 -54 115 -131 154 -171 38 -41
83 -93 99 -117 l28 -43 117 55 c88 41 126 65 159 100 23 25 44 44 46 42 10
-11 48 -153 61 -227 23 -130 17 -414 -8 -404 -5 2 -25 -16 -46 -40 -33 -38
-39 -51 -45 -112 -4 -38 -15 -94 -25 -123 -10 -30 -15 -51 -11 -46 16 16 72
135 95 201 13 37 24 60 24 51 1 -12 14 -19 49 -24 83 -12 282 -84 399 -144
l113 -59 0 689 0 689 -765 0 c-535 0 -765 -3 -765 -11z"/>
<path d="M3084 738 c-44 -51 -114 -136 -156 -189 -42 -53 -98 -115 -124 -138
-56 -49 -165 -105 -248 -126 -32 -8 -60 -16 -62 -18 -10 -10 82 -161 113 -186
20 -17 34 -33 31 -36 -3 -4 -46 -15 -94 -25 l-89 -19 358 0 357 -1 0 415 c0
228 -1 415 -3 415 -1 0 -39 -42 -83 -92z"/>
<path d="M0 405 l0 -405 393 1 c215 1 381 3 367 6 -69 11 -170 35 -170 41 0 4
16 20 35 35 30 24 103 143 93 152 -2 1 -40 12 -86 23 -168 43 -257 104 -383
265 -73 92 -239 287 -246 287 -1 0 -3 -182 -3 -405z"/>
<path d="M2388 696 c-32 -34 -86 -79 -120 -100 -63 -37 -64 -37 -143 -31 -88
7 -212 32 -220 45 -3 4 -24 3 -47 -3 -24 -6 -113 -10 -198 -11 -163 0 -273 16
-385 54 -32 11 -60 18 -62 16 -10 -10 101 -104 153 -130 33 -16 61 -31 63 -33
7 -6 -42 -53 -55 -53 -7 0 -18 -19 -25 -42 -36 -137 -146 -280 -282 -366 -35
-22 -43 -31 -31 -36 8 -3 273 -5 587 -5 315 1 556 5 537 9 -19 4 -27 8 -17 9
12 1 -2 17 -45 49 -106 81 -199 213 -234 333 -9 28 -14 52 -12 53 2 2 55 15
118 30 63 15 146 37 185 50 l70 24 37 -29 c20 -17 64 -59 96 -94 l59 -65 54
10 c62 12 106 25 168 52 l45 19 -51 52 c-64 67 -102 117 -147 195 -20 34 -38
61 -39 61 -1 -1 -28 -29 -59 -63z"/>
<path d="M723 663 c-18 -51 -74 -166 -106 -216 -20 -31 -33 -58 -29 -61 11 -7
123 -33 168 -40 37 -5 44 -3 58 19 9 14 46 57 83 95 36 39 64 72 62 74 -2 1
-34 19 -70 39 -37 20 -86 53 -109 72 -49 41 -49 41 -57 18z"/>
</g>
</svg>
